<svg id="background" xmlns="http://www.w3.org/2000/svg" viewBox="0 0 613.43 797.09"><defs><style>.cls-1,.cls-4{fill:none;}.cls-1,.cls-2,.cls-4{stroke:#b83627;stroke-miterlimit:10;}.cls-1,.cls-2{stroke-width:6px;}.cls-2{fill:#fff;}.cls-3{font-size:132.45px;fill:#b83627;font-family:MS-Gothic, MS Gothic;}.cls-4{stroke-width:3px;}</style></defs><polygon class="cls-1" points="372.45 792.75 3 652.98 3 144.1 372.45 4.34 372.45 792.75"/><polygon class="cls-1" points="610.43 720.03 375.48 792.75 375.48 4.34 610.43 77.06 610.43 720.03"/><ellipse class="cls-1" cx="507.67" cy="192.28" rx="68.64" ry="93.17"/><ellipse class="cls-1" cx="507.67" cy="643.24" rx="68.64" ry="93.17"/><ellipse class="cls-1" cx="507.67" cy="422.49" rx="68.64" ry="93.17"/><line class="cls-2" x1="3" y1="532.5" x2="372.45" y2="625.78"/><polygon class="cls-1" points="354.99 569.2 20.46 491.44 20.46 179.47 354.99 65.26 354.99 569.2"/><text class="cls-3" transform="translate(35.11 376.91) scale(0.74 1)">CompPC</text><polygon class="cls-1" points="538.08 92.09 492.57 78.33 498.49 42.23 544 55.99 538.08 92.09"/><ellipse class="cls-4" cx="519.81" cy="67.16" rx="8.51" ry="11.56"/><line class="cls-4" x1="521.33" y1="59.72" x2="518.28" y2="74.6"/></svg>