<svg height="512pt" viewBox="0 -32 512 512" width="512pt" xmlns="http://www.w3.org/2000/svg"><path d="m72.0625 47.589844h432.382812v352.3125h-432.382812zm0 0" fill="#06ccab"/><path d="m40.035156 71.609375h32.027344v304.269531h-32.027344zm0 0" fill="#11a892"/><path d="m136.121094 335.84375h80.070312v32.027344h-80.070312zm0 0" fill="#dce1eb"/><path d="m104.09375 335.84375h32.027344v32.027344h-32.027344zm0 0" fill="#ffda45"/><path d="m421.171875 138.871094-84.875 84.875v-120.105469c33.148437 0 63.175781 13.449219 84.875 35.230469zm0 0" fill="#dce1eb"/><path d="m336.296875 223.746094h120.109375c0 33.148437-13.453125 63.175781-35.234375 84.875zm0 0" fill="#dce1eb"/><path d="m336.296875 223.746094v120.105468c-33.148437 0-63.175781-13.453124-84.875-35.230468zm0 0" fill="#dce1eb"/><path d="m336.296875 223.746094h-120.105469c0-33.148438 13.453125-63.175782 35.230469-84.875zm0 0" fill="#dce1eb"/><path d="m456.40625 223.746094h-120.109375l84.875-84.875c21.78125 21.699218 35.234375 51.726562 35.234375 84.875zm0 0" fill="#ffda45"/><path d="m336.296875 223.746094 84.875 84.875c-21.699219 21.777344-51.726563 35.230468-84.875 35.230468zm0 0" fill="#ffda45"/><path d="m336.296875 223.746094-84.875 84.875c-21.777344-21.699219-35.230469-51.726563-35.230469-84.875zm0 0" fill="#ffda45"/><path d="m336.296875 103.640625v120.105469l-84.875-84.875c21.699219-21.78125 51.726563-35.230469 84.875-35.230469zm0 0" fill="#ffda45"/><path d="m64.511719 199.722656h15.105469v16.015625h-15.105469zm0 0" fill="#fff"/><path d="m111.644531 159.6875h-15.105469v-87.621094h39.582032v15.105469h-24.476563zm0 0" fill="#fff"/><path d="m464.410156 360.320312h16.015625v15.105469h-16.015625zm0 0" fill="#fff"/><path d="m400.355469 360.320312h16.015625v15.105469h-16.015625zm0 0" fill="#fff"/><path d="m184.164062 72.066406h16.011719v15.105469h-16.011719zm0 0" fill="#fff"/><g fill="#231f20"><path d="m32.480469 151.679688h15.109375v-72.515626h16.921875v72.515626h15.105469v-96.539063h64.511718v-15.105469h-79.617187v24.023438h-16.921875v-64.058594h-47.589844v15.105469h32.480469zm0 0"/><path d="m168.148438 40.035156v15.105469h328.746093v337.207031h-72.519531v15.109375h87.625v-367.421875zm0 0"/><path d="m79.617188 263.78125h-15.105469v104.546875h-16.921875v-192.625h-15.109375v272.242187h15.109375v-64.511718h16.921875v24.023437h335.84375v-15.109375h-320.738281zm0 0"/><path d="m64.511719 167.695312h15.105469v16.015626h-15.105469zm0 0"/><path d="m64.511719 231.753906h15.105469v16.011719h-15.105469zm0 0"/><path d="m426.523438 133.539062c-24.0625-24.152343-56.105469-37.453124-90.226563-37.453124-34.117187 0-66.160156 13.300781-90.203125 37.433593-24.152344 24.0625-37.453125 56.105469-37.453125 90.226563 0 34.117187 13.300781 66.160156 37.433594 90.207031 24.0625 24.148437 56.105469 37.453125 90.226562 37.453125 34.117188 0 66.160157-13.304688 90.203125-37.433594 24.152344-24.066406 37.457032-56.105468 37.457032-90.226562-.003907-34.121094-13.304688-66.164063-37.4375-90.207032zm-202.523438 97.761719h94.0625l-66.46875 66.46875c-16.355469-18.59375-25.964844-41.746093-27.59375-66.46875zm119.851562-119.851562c24.71875 1.625 47.867188 11.234375 66.46875 27.59375l-66.46875 66.46875zm-15.105468 94.058593-66.46875-66.46875c18.589844-16.351562 41.742187-25.964843 66.46875-27.589843zm-10.683594 10.683594h-94.0625c1.628906-24.71875 11.234375-47.863281 27.59375-66.46875zm10.683594 25.789063v94.0625c-24.71875-1.628907-47.867188-11.234375-66.46875-27.59375zm15.105468 0 66.46875 66.46875c-18.59375 16.355469-41.746093 25.964843-66.46875 27.59375zm10.683594-10.679688h94.058594c-1.625 24.714844-11.234375 47.863281-27.59375 66.464844zm-.003906-15.109375 66.46875-66.46875c16.355469 18.59375 25.964844 41.746094 27.59375 66.46875zm0 0"/><path d="m432.382812 360.320312h16.015626v15.105469h-16.015626zm0 0"/><path d="m152.136719 72.066406h16.011719v15.105469h-16.011719zm0 0"/><path d="m96.539062 375.425781h127.207032v-47.132812h-127.207032zm112.097657-15.105469h-64.960938v-16.921874h64.960938zm-96.992188-16.921874h16.921875v16.921874h-16.921875zm0 0"/><path d="m96.085938 296.261719h64.054687v15.109375h-64.054687zm0 0"/></g><path d="m96.085938 264.234375h64.054687v15.105469h-64.054687zm0 0" fill="#fff"/></svg>