<svg height="512" viewBox="0 0 58 49" width="512" xmlns="http://www.w3.org/2000/svg"><g id="Page-1" fill="none" fill-rule="evenodd"><g id="015---Computer-Case" fill-rule="nonzero"><path id="Shape" d="m58 24v15c0-2.42-1.72-2.54-4.01-3l.01-.1-1-10.9c0-2.76-1.24-4-4-4h-4v-5h5c4.418278 0 8 3.581722 8 8z" fill="#3b97d3"/><path id="Shape" d="m58 39v5c0 1.1045695-.8954305 2-2 2s-2-.8954305-2-2v-5c0-.5522847-.4477153-1-1-1h-9v-4h9c.3326381-.0024124.6645636.0311155.99.1 2.3323067.471124 4.0095193 2.5205858 4.01 4.9z" fill="#2980ba"/><path id="Shape" d="m54 25v9l-.01.1c-.3254364-.0688845-.6573619-.1024124-.99-.1h-3v-8c-.0032948-1.1032019-.8967981-1.9967052-2-2h-2v-4h3c2.7614237 0 5 2.2385763 5 5z" fill="#84b5cb"/><path id="Shape" d="m3 42v5c0 1.1045695.8954305 2 2 2h5.359c.4170759-.0000271.8237088-.1304433 1.163-.373l6.478-4.627" fill="#3f5c6c"/><path id="Shape" d="m43 42v5c0 1.1045695-.8954305 2-2 2h-5.359c-.4170759-.0000271-.8237088-.1304433-1.163-.373l-6.478-4.627" fill="#3f5c6c"/><rect id="Rectangle-path" fill="#547580" height="44" rx="3" width="46"/><rect id="Rectangle-path" fill="#2c3e50" height="38" rx="1" transform="matrix(0 1 -1 0 45 -1)" width="36" x="5" y="3"/><path id="Shape" d="m8 11c-.4043959-.0000863-.76893405-.2437275-.92367798-.6173454-.15474393-.373618-.06922994-.80366035.21667798-1.0896546l2-2c.39237889-.37897221 1.0160848-.37355237 1.4018186.01218142.3857338.3857338.3911536 1.00943969.0121814 1.40181858l-2 2c-.18749273.1875494-.44180519.2929434-.707.293z" fill="#fff"/><path id="Shape" d="m8 16c-.4043959-.0000863-.76893405-.2437275-.92367798-.6173454-.15474393-.373618-.06922994-.8036603.21667798-1.0896546l7-7c.3923789-.37897221 1.0160848-.37355237 1.4018186.01218142.3857338.3857338.3911536 1.00943969.0121814 1.40181858l-7 7c-.18749273.1875494-.44180519.2929434-.707.293z" fill="#fff"/><path id="Shape" d="m37 30v4c0 .5522847-.4477153 1-1 1h-16c-.5522847 0-1-.4477153-1-1v-4z" fill="#26b99a"/><path id="Shape" d="m15 28c-.5522847 0-1-.4477153-1-1v-7c0-1.6568542 1.3431458-3 3-3h2c.5522847 0 1 .4477153 1 1s-.4477153 1-1 1h-2c-.5522847 0-1 .4477153-1 1v7c0 .5522847-.4477153 1-1 1z" fill="#bdc3c7"/><path id="Shape" d="m19 28v-18c0-.55228475.4477153-1 1-1h16c.5522847 0 1 .44771525 1 1v18z" fill="#26b99a"/><rect id="Rectangle-path" fill="#7f8c8d" height="4" rx="1" width="29" x="13" y="27"/><g fill="#f0c419"><path id="Shape" d="m26 17c-.5522847 0-1-.4477153-1-1v-3c0-.5522847.4477153-1 1-1s1 .4477153 1 1v3c0 .5522847-.4477153 1-1 1z"/><path id="Shape" d="m30 17c-.5522847 0-1-.4477153-1-1v-3c0-.5522847.4477153-1 1-1s1 .4477153 1 1v3c0 .5522847-.4477153 1-1 1z"/><path id="Shape" d="m26 24c-.5522847 0-1-.4477153-1-1v-3c0-.5522847.4477153-1 1-1s1 .4477153 1 1v3c0 .5522847-.4477153 1-1 1z"/><path id="Shape" d="m30 24c-.5522847 0-1-.4477153-1-1v-3c0-.5522847.4477153-1 1-1s1 .4477153 1 1v3c0 .5522847-.4477153 1-1 1z"/><path id="Shape" d="m33 17h-3c-.5522847 0-1-.4477153-1-1s.4477153-1 1-1h3c.5522847 0 1 .4477153 1 1s-.4477153 1-1 1z"/><path id="Shape" d="m33 21h-3c-.5522847 0-1-.4477153-1-1s.4477153-1 1-1h3c.5522847 0 1 .4477153 1 1s-.4477153 1-1 1z"/><path id="Shape" d="m26 17h-3c-.5522847 0-1-.4477153-1-1s.4477153-1 1-1h3c.5522847 0 1 .4477153 1 1s-.4477153 1-1 1z"/><path id="Shape" d="m26 21h-3c-.5522847 0-1-.4477153-1-1s.4477153-1 1-1h3c.5522847 0 1 .4477153 1 1s-.4477153 1-1 1z"/></g><rect id="Rectangle-path" fill="#95a5a5" height="6" rx="1" width="6" x="25" y="15"/></g></g></svg>