<svg id="icons" enable-background="new 0 0 64 64" height="512" viewBox="0 0 64 64" width="512" xmlns="http://www.w3.org/2000/svg"><path d="m1 47.495h40v9.01h-40z" fill="#545c66"/><path d="m1 7.495v9.01 30.99h40v-2.99-3-3-3-3-16-9.01z" fill="#656d78"/><path d="m63 7.495v5h-2.01-3-3-3-2.99-3-2v-5z" fill="#656d78"/><path d="m44 38.505c4.42 0 8-3.58 8-8h-.01v-18.01h3v18.01h.01c0 6.08-4.92 11-11 11h-3v-3z" fill="#e6e9ed"/><path d="m44 44.495c7.73 0 13.99-6.261 13.99-13.99v-18.01h3v18.01c0 9.39-7.601 16.99-16.99 16.99h-3v-2.99h3z" fill="#e6e9ed"/><path d="m44 41.505c6.08 0 11-4.92 11-11h-.01v-18.01h3v18.01c0 7.729-6.26 13.99-13.99 13.99v.01h-3v-3z" fill="#ccd1d9"/><path d="m44 32.505c1.1 0 2-.9 2-2v-18.01h3v18.01c0 2.76-2.24 5-5 5h-3v-3z" fill="#e6e9ed"/><path d="m44 35.505c2.76 0 5-2.24 5-5v-18.01h2.99v18.01h.01c0 4.42-3.58 8-8 8h-3v-3z" fill="#ccd1d9"/><path d="m34 50.505h3v3h-3z" fill="#aab2bd"/><path d="m31 50.505h3v3h-3z" fill="#434a54"/><path d="m32.3 16.194c-2.9-2.899-6.9-4.689-11.3-4.689-4.41 0-8.41 1.79-11.31 4.689-2.89 2.891-4.69 6.891-4.69 11.311 0 4.41 1.79 8.41 4.69 11.3v.01c2.899 2.9 6.899 4.69 11.31 4.69s8.41-1.8 11.3-4.7c2.91-2.89 4.7-6.89 4.7-11.3 0-4.42-1.8-8.42-4.7-11.311z" fill="#545c66"/><path d="m41.002 48.496h-40.002c-.553 0-1-.447-1-1v-40c0-.552.447-1 1-1h40.002c.553 0 1 .448 1 1v40c0 .553-.447 1-1 1zm-39.002-2h38.002v-38h-38.002z"/><path d="m41.002 57.506h-40.002c-.553 0-1-.447-1-1v-40.006c0-.552.447-1 1-1s1 .448 1 1v39.005h38.002v-39.005c0-.552.447-1 1-1s1 .448 1 1v40.005c0 .554-.447 1.001-1 1.001z"/><path d="m63 13.495h-19.001c-.553 0-1-.448-1-1v-5c0-.552.447-1 1-1h19.001c.553 0 1 .448 1 1v5c0 .552-.447 1-1 1zm-18.001-2h17.001v-3h-17.001z"/><path d="m46 31.5c-.553 0-1-.448-1-1v-18.005c0-.552.447-1 1-1s1 .448 1 1v18.005c0 .553-.447 1-1 1z"/><path d="m48.999 31.5c-.553 0-1-.448-1-1v-18.005c0-.552.447-1 1-1s1 .448 1 1v18.005c0 .553-.447 1-1 1z"/><path d="m51.998 31.5c-.553 0-1-.448-1-1v-18.005c0-.552.447-1 1-1s1 .448 1 1v18.005c0 .553-.447 1-1 1z"/><path d="m54.997 31.5c-.553 0-1-.448-1-1v-18.005c0-.552.447-1 1-1s1 .448 1 1v18.005c0 .553-.447 1-1 1z"/><path d="m57.996 31.5c-.553 0-1-.448-1-1v-18.005c0-.552.447-1 1-1s1 .448 1 1v18.005c0 .553-.447 1-1 1z"/><path d="m60.995 31.5c-.553 0-1-.448-1-1v-18.005c0-.552.447-1 1-1s1 .448 1 1v18.005c0 .553-.447 1-1 1z"/><path d="m44 33.5c-.553 0-1-.447-1-1s.447-1 1-1c.552 0 1-.449 1-1 0-.552.447-1 1-1s1 .448 1 1c0 1.655-1.346 3-3 3z"/><path d="m44 36.498c-.553 0-1-.447-1-1s.447-1 1-1c2.206 0 4-1.794 4-3.999 0-.552.447-1 1-1s1 .448 1 1c0 3.308-2.691 5.999-6 5.999z"/><path d="m44 39.498c-.553 0-1-.447-1-1s.447-1 1-1c3.859 0 7-3.14 7-6.999 0-.552.447-1 1-1s1 .448 1 1c0 4.962-4.037 8.999-9 8.999z"/><path d="m44 42.498c-.553 0-1-.447-1-1s.447-1 1-1c5.514 0 10-4.485 10-9.999 0-.552.447-1 1-1s1 .448 1 1c0 6.616-5.383 11.999-12 11.999z"/><path d="m44 45.494c-.553 0-1-.447-1-1s.447-1 1-1c7.166 0 12.996-5.829 12.996-12.995 0-.552.447-1 1-1s1 .448 1 1c0 8.269-6.727 14.995-14.996 14.995z"/><path d="m44 48.49c-.553 0-1-.447-1-1s.447-1 1-1c8.817 0 15.991-7.174 15.991-15.991 0-.552.447-1 1-1s1 .448 1 1c0 9.921-8.071 17.991-17.991 17.991z"/><path d="m44 48.496h-2.998c-.553 0-1-.447-1-1s.447-1 1-1h2.998c.553 0 1 .447 1 1s-.447 1-1 1z"/><path d="m44 45.498h-2.998c-.553 0-1-.447-1-1s.447-1 1-1h2.998c.553 0 1 .447 1 1s-.447 1-1 1z"/><path d="m44 42.5h-2.998c-.553 0-1-.447-1-1s.447-1 1-1h2.998c.553 0 1 .447 1 1s-.447 1-1 1z"/><path d="m44 39.502h-2.998c-.553 0-1-.447-1-1s.447-1 1-1h2.998c.553 0 1 .447 1 1s-.447 1-1 1z"/><path d="m44 36.504h-2.998c-.553 0-1-.447-1-1s.447-1 1-1h2.998c.553 0 1 .447 1 1s-.447 1-1 1z"/><path d="m44 33.506h-2.998c-.553 0-1-.447-1-1s.447-1 1-1h2.998c.553 0 1 .448 1 1s-.447 1-1 1z"/><path d="m21.001 32.498c-2.757 0-5-2.243-5-5s2.243-5 5-5 5 2.243 5 5-2.243 5-5 5zm0-8c-1.654 0-3 1.346-3 3s1.346 3 3 3 3-1.346 3-3-1.346-3-3-3z"/><path d="m21.001 35.498c-4.411 0-8-3.589-8-8s3.589-8 8-8 8 3.589 8 8-3.589 8-8 8zm0-14c-3.309 0-6 2.691-6 6s2.691 6 6 6 6-2.692 6-6-2.691-6-6-6z"/><path d="m21.001 38.498c-6.065 0-11-4.935-11-11s4.935-11 11-11 11 4.935 11 11-4.935 11-11 11zm0-20c-4.963 0-9 4.038-9 9 0 4.963 4.037 9 9 9s9-4.038 9-9c0-4.963-4.037-9-9-9z"/><path d="m21.001 41.498c-7.72 0-14-6.28-14-14s6.28-14 14-14 14 6.28 14 14-6.28 14-14 14zm0-26c-6.617 0-12 5.383-12 12s5.383 12 12 12 12-5.384 12-12-5.383-12-12-12z"/><path d="m21.001 44.498c-9.374 0-17-7.626-17-17s7.626-17 17-17 17 7.626 17 17-7.626 17-17 17zm0-32c-8.271 0-15 6.729-15 15s6.729 15 15 15 15-6.729 15-15-6.729-15-15-15z"/><path d="m9.688 39.811c-.256 0-.512-.098-.707-.293-.391-.391-.391-1.023 0-1.414l8.485-8.484c.391-.391 1.023-.391 1.414 0s.391 1.024 0 1.414l-8.485 8.484c-.196.195-.452.293-.707.293z"/><path d="m23.829 25.668c-.256 0-.512-.098-.707-.293-.391-.391-.391-1.023 0-1.414l8.485-8.484c.391-.391 1.023-.391 1.414 0s.391 1.023 0 1.414l-8.485 8.484c-.195.196-.451.293-.707.293z"/><path d="m32.314 39.811c-.256 0-.512-.098-.707-.293l-8.485-8.486c-.391-.391-.391-1.023 0-1.414s1.023-.391 1.414 0l8.485 8.486c.391.391.391 1.023 0 1.414-.195.195-.451.293-.707.293z"/><path d="m18.172 25.668c-.256 0-.512-.098-.707-.293l-8.485-8.484c-.391-.391-.391-1.023 0-1.414s1.023-.391 1.414 0l8.484 8.484c.391.391.391 1.023 0 1.414-.194.196-.45.293-.706.293z"/><path d="m5.024 12.498c-.553 0-1.005-.448-1.005-1s.442-1 .994-1h.011c.552 0 1 .448 1 1s-.448 1-1 1z"/><path d="m37.031 12.498c-.553 0-1.005-.448-1.005-1s.442-1 .994-1h.011c.552 0 1 .448 1 1s-.448 1-1 1z"/><path d="m5.024 44.518c-.553 0-1.005-.447-1.005-1s.442-1 .994-1h.011c.552 0 1 .447 1 1s-.448 1-1 1z"/><path d="m37.031 44.518c-.553 0-1.005-.447-1.005-1s.442-1 .994-1h.011c.552 0 1 .447 1 1s-.448 1-1 1z"/><path d="m37.002 54.5h-3.001c-.553 0-1-.447-1-1v-3.002c0-.553.447-1 1-1h3.001c.553 0 1 .447 1 1v3.002c0 .553-.447 1-1 1zm-2.001-2h1.001v-1.002h-1.001z"/><path d="m34.001 54.5h-3.001c-.553 0-1-.447-1-1v-3.002c0-.553.447-1 1-1h3.001c.553 0 1 .447 1 1s-.447 1-1 1h-2.001v1.002h2.001c.553 0 1 .447 1 1s-.447 1-1 1z"/></svg>